<?xml version="1.0" encoding="UTF-8" standalone="no"?>
<svg
   xmlns:dc="http://purl.org/dc/elements/1.1/"
   xmlns:cc="http://creativecommons.org/ns#"
   xmlns:rdf="http://www.w3.org/1999/02/22-rdf-syntax-ns#"
   xmlns:svg="http://www.w3.org/2000/svg"
   xmlns="http://www.w3.org/2000/svg"
   xmlns:sodipodi="http://sodipodi.sourceforge.net/DTD/sodipodi-0.dtd"
   xmlns:inkscape="http://www.inkscape.org/namespaces/inkscape"
   version="1.1"
   viewBox="0 0 11898 11456"
   preserveAspectRatio="xMidYMid meet"
   id="svg2"
   width="100%"
   height="100%"
   style="fill-rule:evenodd">
  <metadata
     id="metadata208">
  </metadata>
  <defs
     id="defs206" />
  <g
     visibility="visible"
     id="Predefinito"
     class="Master_Slide"
     style="visibility:visible"
     transform="translate(-1000,-1000)">
    <g
       style="fill:none;stroke:none"
       id="g5">
      <rect
         x="0"
         y="0"
         width="29700"
         height="21000"
         id="rect7" />
    </g>
  </g>
  <g
     visibility="visible"
     id="page3"
     class="Slide"
     style="visibility:visible"
     transform="translate(-1000,-1000)">
    <g
       class="Group"
       id="g10">
      <g
         class="Drawing"
         id="g12">
        <g
           id="g14">
          <g
             style="fill:#9d0e11;stroke:none"
             id="g16">
            <path
               d="m 1423,8231 0,476 0,44 9,27 9,26 18,27 17,17 27,9 35,9 35,0 53,0 35,0 27,-9 35,-9 18,-17 17,-27 9,-26 9,-27 0,-44 0,-238 406,0 0,265 -9,114 -18,106 -44,88 -26,35 -27,36 -35,26 -35,27 -88,44 -106,26 -124,9 -159,0 -114,-9 -106,-26 -88,-44 -35,-27 -36,-26 -35,-36 -27,-35 -35,-88 -26,-106 -9,-114 0,-1323 9,-124 26,-97 35,-88 27,-44 35,-27 36,-35 35,-26 88,-36 106,-26 114,-9 159,0 124,9 106,26 88,36 35,26 35,35 27,27 26,44 44,88 18,97 9,124 0,829 -759,-9 0,-353 344,0 0,-450 0,-35 -9,-35 -8,-27 -18,-17 -18,-18 -26,-18 -35,-9 -36,0 -44,0 -35,0 -35,9 -27,18 -17,18 -18,17 -9,27 -9,35 0,35 0,450 0,353 z"
               id="path18" />
          </g>
          <g
             style="fill:none;stroke:none"
             id="g20">
            <rect
               x="1000"
               y="6899"
               width="1183"
               height="2347"
               id="rect22" />
          </g>
        </g>
      </g>
      <g
         class="Drawing"
         id="g24">
        <g
           id="g26">
          <g
             style="fill:#9d0e11;stroke:none"
             id="g28">
            <path
               d="m 1820,5876 371,-212 414,715 27,-97 52,-97 36,-44 35,-45 44,-35 53,-35 9,0 79,-44 80,-18 79,0 70,9 71,35 62,44 62,71 52,79 741,1279 36,88 26,80 9,79 0,79 -27,71 -44,62 -53,61 -79,53 -53,27 -62,17 -53,18 -53,9 -105,0 -106,-9 70,115 -361,211 -1482,-2566 1632,1976 61,0 53,0 62,-18 53,-27 53,-35 18,-26 8,-27 9,-17 -9,-36 -8,-26 -9,-27 -644,-1120 -27,-26 -17,-27 -18,-17 -26,-9 -27,0 -26,9 -62,26 -53,36 -44,35 -35,53 -27,44 715,1235 -1632,-1976 z"
               id="path30" />
          </g>
          <g
             style="fill:none;stroke:none"
             id="g32">
            <rect
               x="1820"
               y="5664"
               width="2409"
               height="2779"
               id="rect34" />
          </g>
        </g>
      </g>
      <g
         class="Drawing"
         id="g36">
        <g
           id="g38">
          <g
             style="fill:#000000;stroke:none"
             id="g40">
            <path
               d="m 4960,7516 -106,53 -106,27 -97,9 -44,0 -44,-9 -44,-18 -35,-17 -80,-53 -70,-80 -71,-97 -661,-1146 -53,-106 -27,-106 -9,-97 0,-44 9,-44 18,-44 18,-44 52,-71 80,-79 97,-62 167,-97 115,-53 97,-35 97,-9 44,9 44,9 44,8 44,27 80,53 70,79 62,97 662,1147 53,105 35,97 9,98 -9,44 -9,44 -9,44 -26,44 -53,79 -80,71 -97,70 -167,97 -926,-1728 -35,17 -18,18 -18,27 -9,26 -8,26 8,27 9,35 18,27 635,1102 17,35 27,18 18,18 26,17 27,0 26,0 35,-9 27,-17 61,-35 27,-18 26,-27 18,-17 9,-27 9,-26 -9,-35 -9,-27 -18,-35 -635,-1103 -17,-26 -27,-27 -17,-17 -27,-9 -26,0 -27,0 -35,9 -35,17 -53,36 926,1728 z"
               id="path42" />
          </g>
          <g
             style="fill:none;stroke:none"
             id="g44">
            <rect
               x="3513"
               y="5294"
               width="1899"
               height="2312"
               id="rect46" />
          </g>
        </g>
      </g>
      <g
         class="Drawing"
         id="g48">
        <g
           id="g50">
          <g
             style="fill:#000000;stroke:none"
             id="g52">
            <path
               d="m 6159,6820 -106,53 -105,35 -97,9 -45,-9 -44,-9 -44,-9 -35,-26 -79,-53 -80,-80 -61,-97 -662,-1146 -53,-106 -35,-97 -9,-97 9,-44 9,-44 9,-44 26,-44 53,-80 79,-70 97,-71 168,-97 106,-53 106,-26 97,-9 44,0 44,9 44,17 44,18 70,53 80,79 62,97 661,1147 53,106 35,106 9,97 -9,44 -9,44 -8,44 -27,44 -53,71 -79,79 -97,62 -168,97 -926,-1729 -35,18 -18,26 -17,18 -9,26 -9,27 9,35 9,26 17,36 635,1102 18,27 26,26 18,18 26,9 27,8 26,-8 36,-9 26,-18 62,-26 26,-27 27,-17 17,-27 9,-26 9,-27 -9,-26 -9,-36 -17,-26 -635,-1103 -18,-35 -26,-17 -18,-18 -26,-18 -27,0 -26,0 -36,18 -35,9 -53,35 926,1729 z"
               id="path54" />
          </g>
          <g
             style="fill:none;stroke:none"
             id="g56">
            <rect
               x="4704"
               y="4605"
               width="1906"
               height="2313"
               id="rect58" />
          </g>
        </g>
      </g>
      <g
         class="Drawing"
         id="g60">
        <g
           id="g62">
          <g
             style="fill:#000000;stroke:none"
             id="g64">
            <path
               d="m 6847,3750 194,1182 935,812 -388,220 -882,-802 564,987 -361,212 -1482,-2566 362,-212 899,1543 -229,-1155 388,-221 z"
               id="path66" />
          </g>
          <g
             style="fill:none;stroke:none"
             id="g68">
            <rect
               x="5427"
               y="3583"
               width="2550"
               height="2779"
               id="rect70" />
          </g>
        </g>
      </g>
      <g
         class="Drawing"
         id="g72">
        <g
           id="g74">
          <g
             style="fill:#9d0e11;stroke:none"
             id="g76">
            <path
               d="m 5366,8398 35,-17 17,-18 18,-26 18,-27 0,-26 0,-27 -9,-35 -18,-35 -26,-36 -18,-35 -26,-18 -18,-17 -26,-9 -27,-9 -35,9 -27,9 -35,17 -1102,636 -27,17 -26,18 -18,26 -9,27 0,26 0,27 9,35 18,26 26,44 18,36 18,26 26,18 26,9 27,0 26,0 36,-9 35,-18 397,-229 211,353 -423,247 -115,53 -97,26 -97,9 -44,0 -44,-9 -44,-18 -44,-17 -79,-53 -71,-80 -62,-97 -88,-150 -53,-114 -35,-97 -9,-97 9,-44 9,-44 9,-45 26,-44 53,-79 79,-71 97,-61 1147,-662 106,-53 97,-35 97,-9 53,9 44,9 35,9 44,17 80,62 70,79 71,97 88,150 44,106 35,97 9,97 0,44 -9,44 -17,45 -18,44 -53,79 -79,71 -97,61 -362,212 -212,-362 336,-194 z"
               id="path78" />
          </g>
          <g
             style="fill:none;stroke:none"
             id="g80">
            <rect
               x="3575"
               y="7622"
               width="2303"
               height="1880"
               id="rect82" />
          </g>
        </g>
      </g>
      <g
         class="Drawing"
         id="g84">
        <g
           id="g86">
          <g
             style="fill:#000000;stroke:none"
             id="g88">
            <path
               d="m 6688,8328 212,361 -2566,1482 -212,-362 2566,-1481 z"
               id="path90" />
          </g>
          <g
             style="fill:none;stroke:none"
             id="g92">
            <rect
               x="4122"
               y="8328"
               width="2779"
               height="1844"
               id="rect94" />
          </g>
        </g>
      </g>
      <g
         class="Drawing"
         id="g96">
        <g
           id="g98">
          <g
             style="fill:#000000;stroke:none"
             id="g100">
            <path
               d="m 5030,11371 -211,-362 132,-71 -106,-35 -88,-53 -44,-35 -44,-35 -36,-53 -35,-53 -9,-9 -35,-79 -26,-80 0,-70 8,-62 27,-62 44,-62 62,-52 70,-53 1667,-962 212,362 -1561,900 -44,44 -18,17 -9,18 0,26 9,27 18,53 35,53 35,44 53,35 53,35 1614,-935 212,362 -1985,1147 z"
               id="path102" />
          </g>
          <g
             style="fill:none;stroke:none"
             id="g104">
            <rect
               x="4527"
               y="9183"
               width="2489"
               height="2189"
               id="rect106" />
          </g>
        </g>
      </g>
      <g
         class="Drawing"
         id="g108">
        <g
           id="g110">
          <g
             style="fill:#000000;stroke:none"
             id="g112">
            <path
               d="m 7685,10048 212,370 -715,415 97,35 97,44 44,35 36,35 44,45 35,53 0,8 35,80 27,79 0,79 -18,71 -26,71 -53,61 -62,62 -79,53 -1279,741 -88,35 -80,27 -79,8 -79,0 -71,-26 -62,-44 -61,-53 -53,-71 0,-8 -27,-53 -26,-62 -9,-53 -9,-53 0,-106 9,-97 -115,62 -211,-362 2566,-1481 -1976,1631 -8,62 8,53 18,62 27,53 35,52 26,18 18,9 26,9 27,0 35,-9 27,-18 1120,-644 26,-17 27,-27 8,-17 9,-27 9,-26 -9,-27 -26,-61 -36,-53 -35,-36 -53,-35 -53,-26 -1226,705 1976,-1631 z"
               id="path114" />
          </g>
          <g
             style="fill:none;stroke:none"
             id="g116">
            <rect
               x="5119"
               y="10048"
               width="2779"
               height="2408"
               id="rect118" />
          </g>
        </g>
      </g>
      <g
         class="Drawing"
         id="g120">
        <g
           id="g122">
          <g
             style="fill:#9d0e11;stroke:none"
             id="g124">
            <path
               d="m 7534,6326 441,0 0,405 -441,0 0,-405 9,599 423,0 0,2294 -423,0 0,-2294 -9,-599 z"
               id="path126" />
          </g>
          <g
             style="fill:none;stroke:none"
             id="g128">
            <rect
               x="7534"
               y="6326"
               width="443"
               height="2894"
               id="rect130" />
          </g>
        </g>
      </g>
      <g
         class="Drawing"
         id="g132">
        <g
           id="g134">
          <g
             style="fill:#000000;stroke:none"
             id="g136">
            <path
               d="m 8689,9219 -423,0 0,-1923 -150,0 0,-371 150,0 0,-379 423,0 0,379 221,0 0,371 -221,0 0,1923 z"
               id="path138" />
          </g>
          <g
             style="fill:none;stroke:none"
             id="g140">
            <rect
               x="8116"
               y="6545"
               width="795"
               height="2675"
               id="rect142" />
          </g>
        </g>
      </g>
      <g
         class="Drawing"
         id="g144">
        <g
           id="g146">
          <g
             style="fill:#000000;stroke:none"
             id="g148">
            <path
               d="m 9033,8390 0,-97 18,-80 18,-70 35,-53 44,-53 53,-44 70,-36 80,-35 441,-150 0,-353 0,-35 -9,-26 -9,-27 -17,-26 -27,-18 -26,-9 -27,-9 -35,0 -35,0 -36,0 -26,9 -27,9 -26,18 -18,26 -9,27 -8,26 0,35 0,283 -397,0 0,-291 9,-124 17,-97 44,-88 27,-44 26,-27 36,-35 35,-26 88,-36 106,-26 115,-9 141,0 114,9 106,26 88,36 36,26 35,35 26,27 27,44 44,88 17,97 9,124 0,1808 -414,0 9,-150 -89,70 -88,53 -53,18 -53,17 -53,9 -61,9 -9,0 -88,-9 -71,-17 -62,-36 -52,-44 -36,-53 -35,-70 -9,-80 -9,-79 0,-467 759,405 0,-661 -229,88 -62,26 -36,45 -17,44 -9,70 0,327 9,52 9,27 17,18 18,8 26,18 53,0 62,0 53,-9 53,-26 53,-27 -759,-405 z"
               id="path150" />
          </g>
          <g
             style="fill:none;stroke:none"
             id="g152">
            <rect
               x="9033"
               y="6899"
               width="1174"
               height="2347"
               id="rect154" />
          </g>
        </g>
      </g>
      <g
         class="Drawing"
         id="g156">
        <g
           id="g158">
          <g
             style="fill:#000000;stroke:none"
             id="g160">
            <path
               d="m 10392,6255 423,0 0,2964 -423,0 0,-2964 z"
               id="path162" />
          </g>
          <g
             style="fill:none;stroke:none"
             id="g164">
            <rect
               x="10392"
               y="6255"
               width="424"
               height="2965"
               id="rect166" />
          </g>
        </g>
      </g>
      <g
         class="Drawing"
         id="g168">
        <g
           id="g170">
          <g
             style="fill:#000000;stroke:none"
             id="g172">
            <path
               d="m 11000,6326 432,0 0,405 -432,0 0,-405 9,599 423,0 0,2294 -423,0 0,-2294 -9,-599 z"
               id="path174" />
          </g>
          <g
             style="fill:none;stroke:none"
             id="g176">
            <rect
               x="11000"
               y="6326"
               width="433"
               height="2894"
               id="rect178" />
          </g>
        </g>
      </g>
      <g
         class="Drawing"
         id="g180">
        <g
           id="g182">
          <g
             style="fill:#000000;stroke:none"
             id="g184">
            <path
               d="m 11600,8390 9,-97 8,-80 27,-70 26,-53 44,-53 62,-44 62,-36 88,-35 432,-150 0,-353 0,-35 -9,-26 -8,-27 -18,-26 -18,-18 -26,-9 -35,-9 -36,0 -26,0 -35,0 -36,9 -26,9 -18,18 -17,26 -18,27 -9,26 0,35 0,283 -397,0 0,-291 9,-124 27,-97 35,-88 26,-44 36,-27 26,-35 44,-26 88,-36 97,-26 124,-9 132,0 124,9 97,26 88,36 35,26 35,35 36,27 26,44 35,88 27,97 9,124 0,1808 -415,0 0,-150 -79,70 -97,53 -44,18 -53,17 -62,9 -62,9 -88,-9 -79,-17 -62,-36 -44,-44 -44,-53 -27,-70 -17,-80 -9,-79 0,-467 758,405 0,-661 -229,88 -53,26 -35,45 -27,44 0,70 0,327 9,52 9,27 9,18 17,8 27,18 62,0 52,0 53,-9 53,-26 53,-27 -758,-405 z"
               id="path186" />
          </g>
          <g
             style="fill:none;stroke:none"
             id="g188">
            <rect
               x="11600"
               y="6899"
               width="1183"
               height="2347"
               id="rect190" />
          </g>
        </g>
      </g>
      <g
         class="Drawing"
         id="g192">
        <g
           id="g194">
          <g
             style="fill:#9d0e11;stroke:none"
             id="g196">
            <path
               d="m 12897,5542 -2619,-4542 -3413,1967 1490,2575 4542,0 z"
               id="path198" />
          </g>
          <g
             style="fill:none;stroke:none"
             id="g200">
            <rect
               x="6864"
               y="1000"
               width="6034"
               height="4543"
               id="rect202" />
          </g>
        </g>
      </g>
    </g>
  </g>
</svg>
